<?xml version="1.0" encoding="UTF-8"?>
<svg id="Capa_2" data-name="Capa 2" xmlns="http://www.w3.org/2000/svg" viewBox="0 0 180.69 180.69">
  <defs>
    <style>
      .cls-1 {
        fill: #fbcd44;
      }

      .cls-2 {
        fill: #ffe9a9;
      }
    </style>
  </defs>
  <g id="Capa_1-2" data-name="Capa 1">
    <g>
      <circle class="cls-2" cx="90.34" cy="90.34" r="90.34"/>
      <path class="cls-1" d="M51.41,89.42c.4-3.16,3.42-5.58,6.53-5.64v-13.46c2.09-15.88,15.34-18.19,28.83-18.8,14.51-.66,33.97.62,35.97,18.8v13.46c2.84.13,5.45,1.86,6.24,4.65.49,1.69.51,5.73-.08,7.38-.88,2.46-3.53,4.35-6.16,4.26-.15,3.6.42,7.29-.53,10.81-.89,3.3-3.02,6.59-5.82,8.56.49,4.45-2.36,9.3-7.03,9.86h-2.28c-3.51-.66-6.03-3.11-6.94-6.55l-19.69.1c-.7,3.4-3.47,5.81-6.83,6.46h-2.28c-4.84-.92-7.42-5.07-7.03-9.86-2.81-1.99-4.92-5.23-5.82-8.56-.95-3.52-.38-7.21-.53-10.81-3.26.04-5.83-2.39-6.54-5.48.15-1.63-.2-3.59,0-5.18ZM115.44,67.65c-1.3-4-4.77-6.95-8.79-8.02-8.96-2.39-24.03-2.42-32.95.12-3.85,1.1-7.21,4.05-8.45,7.9h11.94c.31-.36.26-.88.46-1.37.46-1.17,1.55-1.76,2.75-1.96,6.33.33,13.19-.49,19.46-.02,1.21.09,2.44.55,3.04,1.67.31.58.26,1.17.6,1.68h11.94ZM116.35,93.53v-19.26l-.23-.23h-51.56l-.23.23v19.26h52.02ZM70.88,100.08h-6.54v7.08c0,4.82,5.06,9.33,9.8,9.22,10.65-.49,21.83.62,32.41,0,4.83-.28,9.8-4.05,9.8-9.22v-7.08h-6.54v3.88c0,.26-.75,1.52-.99,1.75-1.55,1.49-4.2.98-5.16-.93-.07-.15-.39-1.05-.39-1.13v-3.58h-25.86v3.58c0,.13-.35,1.04-.45,1.22-.99,1.85-3.58,2.3-5.1.83-.24-.23-.99-1.49-.99-1.75v-3.88Z"/>
    </g>
  </g>
</svg>